<svg xmlns="http://www.w3.org/2000/svg" width="281" height="108" viewBox="0 0 281 108" fill="none"><path d="M0 39.5122C0 17.6902 17.6902 0 39.5122 0C61.3342 0 79.0244 17.6902 79.0244 39.5122V90.439C79.0244 100.138 71.1621 108 61.4634 108H17.561C7.86231 108 0 100.138 0 90.439V39.5122Z" fill="#F9FD21"></path><g clip-path="url(#clip0_343_104)"><rect x="18.439" y="18.4391" width="42.1463" height="42.1463" rx="21.0732" fill="#F9FD21"></rect><circle cx="39.5121" cy="34.0332" r="6.28683" stroke="black" stroke-width="1.7561" stroke-dasharray="1.69 1.69"></circle><circle cx="39.7229" cy="57.8457" r="10.7122" stroke="black" stroke-width="1.7561" stroke-dasharray="1.69 1.69"></circle></g><rect x="19.3171" y="19.3171" width="40.3902" height="40.3902" rx="20.1951" stroke="black" stroke-width="1.7561" stroke-dasharray="1.69 1.69"></rect><path d="M21.394 84.1219V75.1818H24.7465C25.4333 75.1818 26.0096 75.3011 26.4752 75.5398C26.9437 75.7784 27.2973 76.1131 27.536 76.5438C27.7775 76.9716 27.8983 77.4707 27.8983 78.0411C27.8983 78.6144 27.7761 79.112 27.5316 79.534C27.2901 79.9531 26.9336 80.2776 26.4621 80.5075C25.9906 80.7345 25.4115 80.848 24.7247 80.848H22.3369V79.5035H24.5064C24.9081 79.5035 25.2369 79.4482 25.493 79.3376C25.7491 79.2241 25.9383 79.0597 26.0605 78.8443C26.1856 78.626 26.2482 78.3583 26.2482 78.0411C26.2482 77.7239 26.1856 77.4532 26.0605 77.2291C25.9354 77.0021 25.7447 76.8304 25.4886 76.714C25.2325 76.5947 24.9022 76.5351 24.4977 76.5351H23.0135V84.1219H21.394ZM26.0125 80.071L28.2257 84.1219H26.4184L24.2445 80.071H26.0125ZM32.1828 85.2395V74.0643H32.8987V85.2395H32.1828ZM34.2476 77.6395C34.2069 77.2582 34.0352 76.9614 33.7325 76.749C33.4328 76.5365 33.0428 76.4303 32.5626 76.4303C32.225 76.4303 31.9355 76.4812 31.6939 76.5831C31.4524 76.6849 31.2676 76.8232 31.1395 76.9978C31.0115 77.1724 30.946 77.3717 30.9431 77.5958C30.9431 77.7821 30.9853 77.9436 31.0697 78.0804C31.157 78.2172 31.2748 78.3336 31.4233 78.4296C31.5717 78.5227 31.7361 78.6013 31.9165 78.6653C32.097 78.7293 32.2789 78.7832 32.4622 78.8268L33.3003 79.0364C33.6379 79.1149 33.9624 79.2212 34.2738 79.355C34.5881 79.4889 34.8689 79.6577 35.1163 79.8614C35.3666 80.0651 35.5645 80.311 35.71 80.5992C35.8555 80.8873 35.9283 81.2248 35.9283 81.6119C35.9283 82.1357 35.7944 82.597 35.5266 82.9957C35.2589 83.3915 34.8718 83.7014 34.3655 83.9255C33.862 84.1467 33.2523 84.2573 32.5364 84.2573C31.8409 84.2573 31.237 84.1496 30.7248 83.9342C30.2155 83.7189 29.8168 83.4046 29.5287 82.9913C29.2435 82.5781 29.0893 82.0746 29.066 81.4809H30.6593C30.6826 81.7923 30.7787 82.0513 30.9474 82.258C31.1162 82.4646 31.336 82.6188 31.6066 82.7207C31.8802 82.8225 32.1857 82.8735 32.5233 82.8735C32.8755 82.8735 33.1839 82.8211 33.4488 82.7163C33.7165 82.6086 33.926 82.4602 34.0774 82.2711C34.2287 82.079 34.3058 81.8549 34.3087 81.5988C34.3058 81.366 34.2374 81.1739 34.1036 81.0226C33.9697 80.8683 33.782 80.7403 33.5404 80.6384C33.3018 80.5337 33.0224 80.4405 32.7023 80.3591L31.6852 80.0971C30.9489 79.908 30.3669 79.6213 29.9391 79.2372C29.5142 78.8501 29.3017 78.3365 29.3017 77.6962C29.3017 77.1695 29.4443 76.7082 29.7295 76.3124C30.0176 75.9166 30.4091 75.6096 30.9038 75.3913C31.3985 75.1702 31.9587 75.0596 32.5844 75.0596C33.2189 75.0596 33.7747 75.1702 34.252 75.3913C34.7322 75.6096 35.109 75.9137 35.3826 76.3037C35.6561 76.6908 35.7973 77.136 35.806 77.6395H34.2476ZM37.2848 84.1219V82.952L40.3885 79.9094C40.6853 79.6097 40.9327 79.3434 41.1306 79.1106C41.3285 78.8778 41.4769 78.6522 41.5759 78.434C41.6748 78.2157 41.7243 77.9829 41.7243 77.7355C41.7243 77.4532 41.6603 77.2117 41.5322 77.0109C41.4042 76.8072 41.2281 76.65 41.004 76.5394C40.7799 76.4288 40.5253 76.3735 40.2401 76.3735C39.9461 76.3735 39.6886 76.4347 39.4674 76.5569C39.2462 76.6762 39.0745 76.8464 38.9523 77.0676C38.833 77.2888 38.7733 77.5522 38.7733 77.8577H37.2324C37.2324 77.2903 37.3619 76.797 37.6209 76.3779C37.8799 75.9588 38.2364 75.6344 38.6904 75.4044C39.1473 75.1745 39.6711 75.0596 40.2619 75.0596C40.8614 75.0596 41.3881 75.1716 41.8421 75.3957C42.2961 75.6198 42.6483 75.9268 42.8985 76.3168C43.1517 76.7068 43.2783 77.152 43.2783 77.6526C43.2783 77.9872 43.2143 78.3161 43.0862 78.6391C42.9582 78.9622 42.7327 79.3201 42.4096 79.713C42.0895 80.1059 41.6399 80.5817 41.0608 81.1404L39.5198 82.7076V82.7687H43.4136V84.1219H37.2848ZM48.556 75.1818V84.1219H46.9364V76.7577H46.8841L44.7931 78.0935V76.6093L47.015 75.1818H48.556ZM53.934 84.2442C53.352 84.2442 52.8311 84.135 52.3712 83.9168C51.9114 83.6956 51.5462 83.3929 51.2756 83.0088C51.0078 82.6247 50.8652 82.1852 50.8478 81.6905H52.4193C52.4484 82.0572 52.607 82.3569 52.8951 82.5897C53.1832 82.8196 53.5295 82.9346 53.934 82.9346C54.2512 82.9346 54.5335 82.8618 54.7809 82.7163C55.0283 82.5708 55.2232 82.3686 55.3658 82.1095C55.5084 81.8505 55.5783 81.5552 55.5754 81.2234C55.5783 80.8858 55.507 80.5861 55.3615 80.3241C55.216 80.0622 55.0166 79.8571 54.7634 79.7086C54.5102 79.5573 54.2192 79.4816 53.8904 79.4816C53.6226 79.4787 53.3593 79.5282 53.1002 79.6301C52.8412 79.7319 52.6361 79.8658 52.4847 80.0317L51.0224 79.7916L51.4895 75.1818H56.6754V76.5351H52.8296L52.572 78.9054H52.6244C52.7903 78.7104 53.0246 78.5489 53.3272 78.4209C53.6299 78.2899 53.9617 78.2244 54.3225 78.2244C54.8638 78.2244 55.3469 78.3525 55.7718 78.6086C56.1967 78.8618 56.5314 79.211 56.7758 79.6562C57.0203 80.1015 57.1425 80.6108 57.1425 81.1841C57.1425 81.7749 57.0057 82.3016 56.7322 82.7643C56.4615 83.2242 56.0847 83.5865 55.6016 83.8513C55.1214 84.1132 54.5655 84.2442 53.934 84.2442Z" fill="black"></path><rect x="91.5244" y="16.8149" width="54.1489" height="74.3702" rx="27.0745" stroke="white"></rect><g clip-path="url(#clip1_343_104)"><circle cx="118.599" cy="40.0658" r="4.3874" stroke="white" stroke-width="1.22553" stroke-dasharray="1.18 1.18"></circle><circle cx="118.746" cy="56.684" r="7.47575" stroke="white" stroke-width="1.22553" stroke-dasharray="1.18 1.18"></circle></g><rect x="104.505" y="29.7959" width="28.1872" height="28.1872" rx="14.0936" stroke="white" stroke-width="1.22553" stroke-dasharray="1.18 1.18"></rect><path d="M105.714 74.949V68.7099H108.054C108.533 68.7099 108.935 68.7932 109.26 68.9597C109.587 69.1262 109.834 69.3598 110.001 69.6604C110.169 69.9589 110.253 70.3072 110.253 70.7053C110.253 71.1054 110.168 71.4527 109.998 71.7472C109.829 72.0396 109.58 72.2661 109.251 72.4265C108.922 72.585 108.518 72.6642 108.039 72.6642H106.372V71.7259H107.886C108.167 71.7259 108.396 71.6873 108.575 71.6101C108.754 71.5309 108.886 71.4161 108.971 71.2659C109.058 71.1135 109.102 70.9267 109.102 70.7053C109.102 70.4839 109.058 70.2951 108.971 70.1387C108.884 69.9803 108.751 69.8604 108.572 69.7792C108.393 69.6959 108.163 69.6543 107.88 69.6543H106.844V74.949H105.714ZM108.937 72.1219L110.482 74.949H109.221L107.704 72.1219H108.937ZM113.243 75.7289V67.93H113.743V75.7289H113.243ZM114.684 70.425C114.656 70.159 114.536 69.9518 114.325 69.8036C114.116 69.6553 113.844 69.5812 113.509 69.5812C113.273 69.5812 113.071 69.6167 112.902 69.6878C112.734 69.7589 112.605 69.8554 112.515 69.9772C112.426 70.0991 112.38 70.2382 112.378 70.3946C112.378 70.5246 112.408 70.6373 112.467 70.7327C112.528 70.8282 112.61 70.9094 112.713 70.9764C112.817 71.0414 112.932 71.0963 113.058 71.1409C113.184 71.1856 113.31 71.2232 113.438 71.2537L114.023 71.3999C114.259 71.4547 114.485 71.5289 114.703 71.6223C114.922 71.7157 115.118 71.8335 115.291 71.9757C115.465 72.1178 115.603 72.2894 115.705 72.4905C115.807 72.6916 115.857 72.9272 115.857 73.1973C115.857 73.5629 115.764 73.8848 115.577 74.163C115.39 74.4392 115.12 74.6555 114.767 74.8119C114.415 74.9662 113.99 75.0434 113.49 75.0434C113.005 75.0434 112.583 74.9683 112.226 74.818C111.871 74.6677 111.592 74.4483 111.391 74.16C111.192 73.8716 111.085 73.5202 111.068 73.1059H112.18C112.197 73.3232 112.264 73.504 112.381 73.6482C112.499 73.7923 112.652 73.9 112.841 73.9711C113.032 74.0422 113.246 74.0777 113.481 74.0777C113.727 74.0777 113.942 74.0411 114.127 73.968C114.314 73.8929 114.46 73.7893 114.566 73.6573C114.671 73.5232 114.725 73.3669 114.727 73.1881C114.725 73.0257 114.677 72.8916 114.584 72.786C114.49 72.6784 114.359 72.589 114.191 72.5179C114.024 72.4448 113.829 72.3798 113.606 72.323L112.896 72.1402C112.382 72.0082 111.976 71.8081 111.678 71.54C111.381 71.2699 111.233 70.9115 111.233 70.4646C111.233 70.097 111.332 69.7751 111.531 69.4989C111.732 69.2227 112.006 69.0085 112.351 68.8561C112.696 68.7018 113.087 68.6246 113.524 68.6246C113.966 68.6246 114.354 68.7018 114.687 68.8561C115.023 69.0085 115.286 69.2207 115.476 69.4928C115.667 69.7629 115.766 70.0737 115.772 70.425H114.684ZM116.804 74.949V74.1325L118.97 72.0092C119.177 71.8 119.35 71.6142 119.488 71.4517C119.626 71.2892 119.73 71.1318 119.799 70.9795C119.868 70.8272 119.902 70.6647 119.902 70.4921C119.902 70.2951 119.858 70.1265 119.768 69.9864C119.679 69.8442 119.556 69.7345 119.4 69.6573C119.243 69.5802 119.065 69.5416 118.866 69.5416C118.661 69.5416 118.482 69.5842 118.327 69.6695C118.173 69.7528 118.053 69.8716 117.968 70.026C117.884 70.1803 117.843 70.3641 117.843 70.5774H116.767C116.767 70.1813 116.858 69.8371 117.039 69.5446C117.219 69.2522 117.468 69.0257 117.785 68.8653C118.104 68.7048 118.469 68.6246 118.882 68.6246C119.3 68.6246 119.668 68.7028 119.984 68.8592C120.301 69.0156 120.547 69.2298 120.722 69.502C120.898 69.7741 120.987 70.0849 120.987 70.4342C120.987 70.6677 120.942 70.8972 120.853 71.1227C120.763 71.3481 120.606 71.5979 120.38 71.8721C120.157 72.1463 119.843 72.4783 119.439 72.8683L118.364 73.9619V74.0046H121.081V74.949H116.804ZM124.67 68.7099V74.949H123.54V69.8097H123.503L122.044 70.7419V69.7061L123.594 68.7099H124.67ZM128.423 75.0343C128.017 75.0343 127.653 74.9581 127.332 74.8058C127.012 74.6514 126.757 74.4402 126.568 74.1721C126.381 73.9041 126.281 73.5974 126.269 73.2521H127.366C127.386 73.508 127.497 73.7172 127.698 73.8797C127.899 74.0401 128.141 74.1203 128.423 74.1203C128.644 74.1203 128.841 74.0696 129.014 73.968C129.187 73.8665 129.323 73.7253 129.422 73.5446C129.522 73.3638 129.571 73.1577 129.568 72.9262C129.571 72.6906 129.521 72.4814 129.419 72.2986C129.318 72.1158 129.179 71.9726 129.002 71.869C128.825 71.7634 128.622 71.7106 128.393 71.7106C128.206 71.7086 128.022 71.7431 127.841 71.8142C127.66 71.8853 127.517 71.9787 127.412 72.0945L126.391 71.9269L126.717 68.7099H130.336V69.6543H127.652L127.473 71.3085H127.509C127.625 71.1724 127.788 71.0597 128 70.9703C128.211 70.879 128.442 70.8333 128.694 70.8333C129.072 70.8333 129.409 70.9226 129.706 71.1013C130.002 71.278 130.236 71.5218 130.406 71.8325C130.577 72.1432 130.662 72.4986 130.662 72.8987C130.662 73.311 130.567 73.6786 130.376 74.0015C130.187 74.3224 129.924 74.5753 129.587 74.7601C129.252 74.9429 128.864 75.0343 128.423 75.0343Z" fill="white"></path><rect x="158.673" y="16.8149" width="54.1489" height="74.3702" rx="27.0745" stroke="white"></rect><g clip-path="url(#clip2_343_104)"><circle cx="185.748" cy="40.0658" r="4.3874" stroke="white" stroke-width="1.22553" stroke-dasharray="1.18 1.18"></circle><circle cx="185.895" cy="56.684" r="7.47575" stroke="white" stroke-width="1.22553" stroke-dasharray="1.18 1.18"></circle></g><rect x="171.654" y="29.7959" width="28.1872" height="28.1872" rx="14.0936" stroke="white" stroke-width="1.22553" stroke-dasharray="1.18 1.18"></rect><path d="M172.863 74.949V68.7099H175.203C175.682 68.7099 176.084 68.7932 176.409 68.9597C176.736 69.1262 176.983 69.3598 177.149 69.6604C177.318 69.9589 177.402 70.3072 177.402 70.7053C177.402 71.1054 177.317 71.4527 177.146 71.7472C176.978 72.0396 176.729 72.2661 176.4 72.4265C176.071 72.585 175.667 72.6642 175.188 72.6642H173.521V71.7259H175.035C175.316 71.7259 175.545 71.6873 175.724 71.6101C175.902 71.5309 176.035 71.4161 176.12 71.2659C176.207 71.1135 176.251 70.9267 176.251 70.7053C176.251 70.4839 176.207 70.2951 176.12 70.1387C176.032 69.9803 175.899 69.8604 175.721 69.7792C175.542 69.6959 175.311 69.6543 175.029 69.6543H173.993V74.949H172.863ZM176.086 72.1219L177.631 74.949H176.37L174.852 72.1219H176.086ZM180.392 75.7289V67.93H180.892V75.7289H180.392ZM181.833 70.425C181.805 70.159 181.685 69.9518 181.474 69.8036C181.265 69.6553 180.993 69.5812 180.657 69.5812C180.422 69.5812 180.22 69.6167 180.051 69.6878C179.883 69.7589 179.754 69.8554 179.664 69.9772C179.575 70.0991 179.529 70.2382 179.527 70.3946C179.527 70.5246 179.557 70.6373 179.616 70.7327C179.677 70.8282 179.759 70.9094 179.862 70.9764C179.966 71.0414 180.081 71.0963 180.207 71.1409C180.332 71.1856 180.459 71.2232 180.587 71.2537L181.172 71.3999C181.408 71.4547 181.634 71.5289 181.852 71.6223C182.071 71.7157 182.267 71.8335 182.44 71.9757C182.614 72.1178 182.752 72.2894 182.854 72.4905C182.955 72.6916 183.006 72.9272 183.006 73.1973C183.006 73.5629 182.913 73.8848 182.726 74.163C182.539 74.4392 182.269 74.6555 181.916 74.8119C181.564 74.9662 181.139 75.0434 180.639 75.0434C180.154 75.0434 179.732 74.9683 179.375 74.818C179.019 74.6677 178.741 74.4483 178.54 74.16C178.341 73.8716 178.234 73.5202 178.217 73.1059H179.329C179.345 73.3232 179.412 73.504 179.53 73.6482C179.648 73.7923 179.801 73.9 179.99 73.9711C180.181 74.0422 180.394 74.0777 180.63 74.0777C180.876 74.0777 181.091 74.0411 181.276 73.968C181.463 73.8929 181.609 73.7893 181.715 73.6573C181.82 73.5232 181.874 73.3669 181.876 73.1881C181.874 73.0257 181.826 72.8916 181.733 72.786C181.639 72.6784 181.508 72.589 181.34 72.5179C181.173 72.4448 180.978 72.3798 180.755 72.323L180.045 72.1402C179.531 72.0082 179.125 71.8081 178.827 71.54C178.53 71.2699 178.382 70.9115 178.382 70.4646C178.382 70.097 178.481 69.7751 178.68 69.4989C178.881 69.2227 179.155 69.0085 179.5 68.8561C179.845 68.7018 180.236 68.6246 180.673 68.6246C181.115 68.6246 181.503 68.7018 181.836 68.8561C182.172 69.0085 182.435 69.2207 182.625 69.4928C182.816 69.7629 182.915 70.0737 182.921 70.425H181.833ZM183.953 74.949V74.1325L186.119 72.0092C186.326 71.8 186.499 71.6142 186.637 71.4517C186.775 71.2892 186.878 71.1318 186.948 70.9795C187.017 70.8272 187.051 70.6647 187.051 70.4921C187.051 70.2951 187.006 70.1265 186.917 69.9864C186.828 69.8442 186.705 69.7345 186.548 69.6573C186.392 69.5802 186.214 69.5416 186.015 69.5416C185.81 69.5416 185.63 69.5842 185.476 69.6695C185.322 69.7528 185.202 69.8716 185.117 70.026C185.033 70.1803 184.992 70.3641 184.992 70.5774H183.916C183.916 70.1813 184.007 69.8371 184.187 69.5446C184.368 69.2522 184.617 69.0257 184.934 68.8653C185.253 68.7048 185.618 68.6246 186.031 68.6246C186.449 68.6246 186.817 68.7028 187.133 68.8592C187.45 69.0156 187.696 69.2298 187.871 69.502C188.047 69.7741 188.136 70.0849 188.136 70.4342C188.136 70.6677 188.091 70.8972 188.002 71.1227C187.912 71.3481 187.755 71.5979 187.529 71.8721C187.306 72.1463 186.992 72.4783 186.588 72.8683L185.513 73.9619V74.0046H188.23V74.949H183.953ZM191.819 68.7099V74.949H190.689V69.8097H190.652L189.193 70.7419V69.7061L190.743 68.7099H191.819ZM195.572 75.0343C195.166 75.0343 194.802 74.9581 194.481 74.8058C194.16 74.6514 193.906 74.4402 193.717 74.1721C193.53 73.9041 193.43 73.5974 193.418 73.2521H194.515C194.535 73.508 194.646 73.7172 194.847 73.8797C195.048 74.0401 195.29 74.1203 195.572 74.1203C195.793 74.1203 195.99 74.0696 196.163 73.968C196.336 73.8665 196.472 73.7253 196.571 73.5446C196.671 73.3638 196.719 73.1577 196.717 72.9262C196.719 72.6906 196.67 72.4814 196.568 72.2986C196.467 72.1158 196.327 71.9726 196.151 71.869C195.974 71.7634 195.771 71.7106 195.542 71.7106C195.355 71.7086 195.171 71.7431 194.99 71.8142C194.809 71.8853 194.666 71.9787 194.561 72.0945L193.54 71.9269L193.866 68.7099H197.485V69.6543H194.801L194.621 71.3085H194.658C194.774 71.1724 194.937 71.0597 195.149 70.9703C195.36 70.879 195.591 70.8333 195.843 70.8333C196.221 70.8333 196.558 70.9226 196.855 71.1013C197.151 71.278 197.385 71.5218 197.555 71.8325C197.726 72.1432 197.811 72.4986 197.811 72.8987C197.811 73.311 197.716 73.6786 197.525 74.0015C197.336 74.3224 197.073 74.5753 196.736 74.7601C196.401 74.9429 196.013 75.0343 195.572 75.0343Z" fill="white"></path><rect x="225.822" y="16.8149" width="54.1489" height="74.3702" rx="27.0745" stroke="white"></rect><g clip-path="url(#clip3_343_104)"><circle cx="252.897" cy="40.0658" r="4.3874" stroke="white" stroke-width="1.22553" stroke-dasharray="1.18 1.18"></circle><circle cx="253.044" cy="56.684" r="7.47575" stroke="white" stroke-width="1.22553" stroke-dasharray="1.18 1.18"></circle></g><rect x="238.803" y="29.7959" width="28.1872" height="28.1872" rx="14.0936" stroke="white" stroke-width="1.22553" stroke-dasharray="1.18 1.18"></rect><path d="M240.012 74.949V68.7099H242.352C242.831 68.7099 243.233 68.7932 243.558 68.9597C243.885 69.1262 244.132 69.3598 244.298 69.6604C244.467 69.9589 244.551 70.3072 244.551 70.7053C244.551 71.1054 244.466 71.4527 244.295 71.7472C244.127 72.0396 243.878 72.2661 243.549 72.4265C243.22 72.585 242.816 72.6642 242.337 72.6642H240.67V71.7259H242.184C242.464 71.7259 242.694 71.6873 242.873 71.6101C243.051 71.5309 243.183 71.4161 243.269 71.2659C243.356 71.1135 243.4 70.9267 243.4 70.7053C243.4 70.4839 243.356 70.2951 243.269 70.1387C243.181 69.9803 243.048 69.8604 242.87 69.7792C242.691 69.6959 242.46 69.6543 242.178 69.6543H241.142V74.949H240.012ZM243.235 72.1219L244.78 74.949H243.519L242.001 72.1219H243.235ZM247.541 75.7289V67.93H248.041V75.7289H247.541ZM248.982 70.425C248.954 70.159 248.834 69.9518 248.623 69.8036C248.414 69.6553 248.141 69.5812 247.806 69.5812C247.571 69.5812 247.369 69.6167 247.2 69.6878C247.032 69.7589 246.903 69.8554 246.813 69.9772C246.724 70.0991 246.678 70.2382 246.676 70.3946C246.676 70.5246 246.706 70.6373 246.765 70.7327C246.825 70.8282 246.908 70.9094 247.011 70.9764C247.115 71.0414 247.23 71.0963 247.356 71.1409C247.481 71.1856 247.608 71.2232 247.736 71.2537L248.321 71.3999C248.557 71.4547 248.783 71.5289 249.001 71.6223C249.22 71.7157 249.416 71.8335 249.589 71.9757C249.763 72.1178 249.901 72.2894 250.003 72.4905C250.104 72.6916 250.155 72.9272 250.155 73.1973C250.155 73.5629 250.062 73.8848 249.875 74.163C249.688 74.4392 249.418 74.6555 249.065 74.8119C248.713 74.9662 248.288 75.0434 247.788 75.0434C247.303 75.0434 246.881 74.9683 246.524 74.818C246.168 74.6677 245.89 74.4483 245.689 74.16C245.49 73.8716 245.382 73.5202 245.366 73.1059H246.478C246.494 73.3232 246.561 73.504 246.679 73.6482C246.797 73.7923 246.95 73.9 247.139 73.9711C247.33 74.0422 247.543 74.0777 247.779 74.0777C248.025 74.0777 248.24 74.0411 248.425 73.968C248.612 73.8929 248.758 73.7893 248.863 73.6573C248.969 73.5232 249.023 73.3669 249.025 73.1881C249.023 73.0257 248.975 72.8916 248.882 72.786C248.788 72.6784 248.657 72.589 248.489 72.5179C248.322 72.4448 248.127 72.3798 247.904 72.323L247.194 72.1402C246.68 72.0082 246.274 71.8081 245.975 71.54C245.679 71.2699 245.531 70.9115 245.531 70.4646C245.531 70.097 245.63 69.7751 245.829 69.4989C246.03 69.2227 246.303 69.0085 246.649 68.8561C246.994 68.7018 247.385 68.6246 247.822 68.6246C248.264 68.6246 248.652 68.7018 248.985 68.8561C249.32 69.0085 249.583 69.2207 249.774 69.4928C249.965 69.7629 250.064 70.0737 250.07 70.425H248.982ZM251.102 74.949V74.1325L253.268 72.0092C253.475 71.8 253.648 71.6142 253.786 71.4517C253.924 71.2892 254.027 71.1318 254.096 70.9795C254.166 70.8272 254.2 70.6647 254.2 70.4921C254.2 70.2951 254.155 70.1265 254.066 69.9864C253.977 69.8442 253.854 69.7345 253.697 69.6573C253.541 69.5802 253.363 69.5416 253.164 69.5416C252.959 69.5416 252.779 69.5842 252.625 69.6695C252.471 69.7528 252.351 69.8716 252.266 70.026C252.182 70.1803 252.141 70.3641 252.141 70.5774H251.065C251.065 70.1813 251.156 69.8371 251.336 69.5446C251.517 69.2522 251.766 69.0257 252.083 68.8653C252.402 68.7048 252.767 68.6246 253.18 68.6246C253.598 68.6246 253.965 68.7028 254.282 68.8592C254.599 69.0156 254.845 69.2298 255.02 69.502C255.196 69.7741 255.285 70.0849 255.285 70.4342C255.285 70.6677 255.24 70.8972 255.151 71.1227C255.061 71.3481 254.904 71.5979 254.678 71.8721C254.455 72.1463 254.141 72.4783 253.737 72.8683L252.662 73.9619V74.0046H255.379V74.949H251.102ZM258.968 68.7099V74.949H257.837V69.8097H257.801L256.342 70.7419V69.7061L257.892 68.7099H258.968ZM262.721 75.0343C262.315 75.0343 261.951 74.9581 261.63 74.8058C261.309 74.6514 261.055 74.4402 260.866 74.1721C260.679 73.9041 260.579 73.5974 260.567 73.2521H261.664C261.684 73.508 261.795 73.7172 261.996 73.8797C262.197 74.0401 262.439 74.1203 262.721 74.1203C262.942 74.1203 263.139 74.0696 263.312 73.968C263.485 73.8665 263.621 73.7253 263.72 73.5446C263.82 73.3638 263.868 73.1577 263.866 72.9262C263.868 72.6906 263.819 72.4814 263.717 72.2986C263.616 72.1158 263.476 71.9726 263.3 71.869C263.123 71.7634 262.92 71.7106 262.69 71.7106C262.504 71.7086 262.32 71.7431 262.139 71.8142C261.958 71.8853 261.815 71.9787 261.709 72.0945L260.689 71.9269L261.015 68.7099H264.634V69.6543H261.95L261.77 71.3085H261.807C261.923 71.1724 262.086 71.0597 262.297 70.9703C262.509 70.879 262.74 70.8333 262.992 70.8333C263.37 70.8333 263.707 70.9226 264.003 71.1013C264.3 71.278 264.534 71.5218 264.704 71.8325C264.875 72.1432 264.96 72.4986 264.96 72.8987C264.96 73.311 264.865 73.6786 264.674 74.0015C264.485 74.3224 264.222 74.5753 263.885 74.7601C263.55 74.9429 263.162 75.0343 262.721 75.0343Z" fill="white"></path><defs><clipPath id="clip0_343_104"><rect x="18.439" y="18.4391" width="42.1463" height="42.1463" rx="21.0732" fill="white"></rect></clipPath><clipPath id="clip1_343_104"><rect x="103.893" y="29.1831" width="29.4128" height="29.4128" rx="14.7064" fill="white"></rect></clipPath><clipPath id="clip2_343_104"><rect x="171.041" y="29.1831" width="29.4128" height="29.4128" rx="14.7064" fill="white"></rect></clipPath><clipPath id="clip3_343_104"><rect x="238.19" y="29.1831" width="29.4128" height="29.4128" rx="14.7064" fill="white"></rect></clipPath></defs></svg>