<svg xmlns="http://www.w3.org/2000/svg" width="71" height="71" viewBox="0 0 71 71" fill="none"><g style="mix-blend-mode:multiply"><rect x="4" y="4" width="63" height="63" rx="31.5" fill="#E6F7E5"></rect><rect x="4" y="4" width="63" height="63" rx="31.5" stroke="#F3FBF2" stroke-width="7.875"></rect><path d="M39.7499 32.4998L34.7499 37.4998L32.2499 34.9998M37.5576 24.3235L39.0838 25.6241C39.4683 25.9518 39.9457 26.1499 40.4493 26.1901L42.4481 26.3494C43.6232 26.4431 44.5567 27.376 44.6505 28.5512L44.8094 30.5503C44.8496 31.0539 45.0484 31.532 45.376 31.9165L46.6761 33.4423C47.4407 34.3396 47.4409 35.6594 46.6762 36.5567L45.3762 38.0827C45.0485 38.4672 44.8499 38.9455 44.8098 39.4491L44.6498 41.4479C44.5561 42.6231 43.6241 43.5565 42.4489 43.6503L40.4494 43.8098C39.9458 43.85 39.4679 44.0476 39.0834 44.3753L37.5576 45.6759C36.6603 46.4406 35.3396 46.4407 34.4423 45.6761L32.9164 44.3754C32.5319 44.0477 32.0541 43.8498 31.5505 43.8096L29.551 43.6503C28.3758 43.5565 27.4438 42.6233 27.35 41.4481L27.1901 39.4492C27.1499 38.9456 26.9514 38.4678 26.6237 38.0833L25.3237 36.5568C24.559 35.6595 24.5587 34.34 25.3233 33.4428L26.6245 31.9163C26.9522 31.5318 27.1488 31.0539 27.189 30.5503L27.3489 28.5514C27.4427 27.3762 28.3774 26.443 29.5526 26.3492L31.5499 26.1899C32.0534 26.1498 32.5316 25.9518 32.9161 25.6242L34.4425 24.3235C35.3397 23.5588 36.6603 23.5588 37.5576 24.3235Z" stroke="#158519" stroke-width="2" stroke-linecap="round" stroke-linejoin="round"></path></g></svg>