<svg xmlns="http://www.w3.org/2000/svg" width="102" height="30" viewBox="0 0 102 30" fill="none"><path d="M9.49351 21.3496L9.59191 21.6274C9.57631 21.5956 9.54031 21.4984 9.49351 21.3496ZM4.92397 19.3739C5.09676 17.8817 5.68356 17.0459 6.78934 16.1891C8.37152 15.0287 10.3479 15.6851 10.3479 15.6851V11.7905C10.8284 11.7782 11.309 11.8081 11.7843 11.8799V16.8905C11.7843 16.8905 9.80851 16.2341 8.22633 17.3945C7.12114 18.2513 6.53315 19.0877 6.36095 20.5798C6.35555 21.391 6.50135 22.4506 7.17274 23.3668C7.00674 23.278 6.83754 23.1768 6.66515 23.0632C5.18616 22.027 4.91677 20.473 4.92397 19.3739ZM19.9448 4.59063C18.8564 3.34625 18.4448 2.08986 18.296 1.20728H19.6652C19.6652 1.20728 19.3922 3.52145 21.3818 5.79722L21.4094 5.82782C20.8731 5.47589 20.3814 5.06049 19.9448 4.59063Z" fill="#EE1D52"></path><path d="M26.5405 8.11923V13.029C26.5405 13.029 24.7933 12.9582 23.5003 12.6144C21.6949 12.1344 20.5346 11.3988 20.5346 11.3988C20.5346 11.3988 19.733 10.8732 19.6682 10.8372V20.9801C19.6682 21.5441 19.52 22.954 19.0682 24.1306C18.4784 25.669 17.5682 26.6788 17.4008 26.8846C17.4008 26.8846 16.2938 28.2502 14.3408 29.1694C12.5805 29.9986 11.0349 29.9776 10.5729 29.9986C10.5729 29.9986 7.90112 30.109 5.49695 28.4782C4.97685 28.1194 4.49153 27.7126 4.04736 27.2632L4.05936 27.2716C6.46413 28.9024 9.1353 28.792 9.1353 28.792C9.5979 28.771 11.1435 28.792 12.9033 27.9628C14.855 27.0436 15.9632 25.678 15.9632 25.678C16.1288 25.4722 17.0432 24.4624 17.6306 22.9234C18.0812 21.7475 18.2306 20.3375 18.2306 19.7729V9.63061C18.2954 9.66721 19.097 10.1928 19.097 10.1928C19.097 10.1928 20.2574 10.9296 22.0627 11.4084C23.3563 11.7516 25.1029 11.823 25.1029 11.823V7.97583C25.7005 8.11563 26.2099 8.15403 26.5405 8.11923Z" fill="#EE1D52"></path><path d="M25.1035 7.97568V11.8222C25.1035 11.8222 23.3569 11.7508 22.0633 11.4076C20.2579 10.9276 19.0976 10.1921 19.0976 10.1921C19.0976 10.1921 18.296 9.66646 18.2312 9.62986V19.7703C18.2312 20.3349 18.083 21.7449 17.6312 22.9209C17.0414 24.4599 16.1312 25.4697 15.9638 25.6755C15.9638 25.6755 14.8568 27.041 12.9038 27.9602C11.1441 28.7894 9.59848 28.7684 9.13588 28.7894C9.13588 28.7894 6.46472 28.8998 4.05995 27.269L4.04795 27.2606C3.7942 27.004 3.55522 26.7332 3.33216 26.4495C2.56477 25.4727 2.09437 24.3189 1.97617 23.9895C1.97582 23.9881 1.97582 23.9867 1.97617 23.9853C1.78538 23.4123 1.38578 22.0383 1.44038 20.7069C1.53698 18.3574 2.32897 16.9162 2.53837 16.5544C3.09319 15.5696 3.81468 14.6885 4.67074 13.9504C5.42572 13.3129 6.28189 12.8059 7.20391 12.4504C7.77883 12.2115 8.37791 12.0355 8.99069 11.9254C9.4389 11.8453 9.89266 11.8002 10.3479 11.7904V15.6826C10.3479 15.6826 8.37149 15.0262 6.78931 16.1866C5.68353 17.0434 5.09673 17.8792 4.92394 19.3713C4.91674 20.4705 5.18613 22.0245 6.66392 23.0619C6.83591 23.1759 7.00511 23.2771 7.17151 23.3655C7.42987 23.7144 7.74386 24.0185 8.1009 24.2655C9.54448 25.2189 10.7541 25.2855 12.3008 24.6663C13.3334 24.2577 14.1068 23.3247 14.4734 22.2903C14.6996 21.6447 14.6966 20.9943 14.6966 20.3229V1.20776H18.2966C18.4454 2.09035 18.857 3.34674 19.9454 4.59112C20.382 5.06098 20.8737 5.47638 21.4099 5.82831C21.5683 5.99931 22.3783 6.84409 23.4181 7.36369C23.9545 7.63179 24.52 7.83715 25.1035 7.97568Z" fill="black"></path><path d="M0.543457 22.7937V22.7973L0.632256 23.0499C0.622656 23.0205 0.589056 22.9311 0.543457 22.7937Z" fill="#69C9D0"></path><path d="M7.20399 12.4504C6.28197 12.8059 5.4258 13.3129 4.67082 13.9504C3.8147 14.6903 3.09359 15.5732 2.53965 16.5598C2.33025 16.9198 1.53826 18.3628 1.44166 20.7123C1.38706 22.0437 1.78666 23.4177 1.97745 23.9907C1.9771 23.9921 1.9771 23.9935 1.97745 23.9949C2.09745 24.3213 2.56605 25.4751 3.33344 26.4549C3.5565 26.7386 3.79548 27.0094 4.04923 27.2661C3.23575 26.7035 2.51026 26.0233 1.89645 25.2477C1.13566 24.2799 0.666469 23.1375 0.544071 22.8003L0.541071 22.7931V22.7883C0.350273 22.2171 -0.0505217 20.8419 0.0052776 19.5088C0.101876 17.1592 0.893867 15.718 1.10326 15.3562C1.65705 14.3695 2.37818 13.4865 3.23444 12.7468C3.98926 12.1091 4.84547 11.6021 5.76761 11.2469C6.34253 11.0079 6.9416 10.8319 7.55438 10.7219C8.47772 10.5604 9.42083 10.5464 10.3485 10.6805V11.7905C9.89345 11.7988 9.43969 11.8425 8.99137 11.9213C8.37822 12.0326 7.77893 12.2101 7.20399 12.4504Z" fill="#69C9D0"></path><path d="M18.296 1.20778H14.6961V20.3241C14.6961 20.9955 14.6991 21.6441 14.4729 22.2915C14.1093 23.3247 13.3359 24.2577 12.3051 24.6717C10.7577 25.2933 9.54815 25.2243 8.10517 24.2709C7.74813 24.0239 7.43415 23.7198 7.17578 23.3709C8.40517 24.0267 9.50555 24.0153 10.8687 23.4681C11.8935 23.0511 12.6735 22.1181 13.0335 21.0843C13.2603 20.4387 13.2573 19.7884 13.2573 19.1176V0H18.2282C18.2282 0 18.1718 0.475794 18.296 1.20778ZM25.1036 6.91252V7.9757C24.5199 7.83721 23.9542 7.63186 23.4176 7.36371C22.3778 6.84412 21.5678 5.99933 21.4094 5.82833C21.5931 5.94903 21.7838 6.05862 21.9806 6.15652C23.2448 6.78772 24.4868 6.97671 25.1036 6.91252Z" fill="#69C9D0"></path><path d="M78.2959 16.8815C78.2958 17.1549 78.3362 17.4269 78.4159 17.6884C78.4204 17.707 78.426 17.7252 78.4327 17.743C78.6247 18.3618 79.0097 18.9029 79.5314 19.2871C80.0531 19.6714 80.684 19.8786 81.3319 19.8784V22.9504C79.8373 22.9504 78.7663 23.0026 77.1373 22.039C75.2774 20.9398 74.2322 18.9298 74.2322 16.8425C74.2322 14.6909 75.401 12.5339 77.3827 11.4953C78.8191 10.7417 79.9123 10.7363 81.3319 10.7363V13.8065C80.5267 13.8067 79.7546 14.1266 79.1853 14.6959C78.616 15.2652 78.2961 16.0373 78.2959 16.8425V16.8815Z" fill="#69C9D0"></path><path d="M84.3912 16.8815C84.3916 17.1549 84.3512 17.4269 84.2712 17.6884C84.267 17.707 84.2614 17.7253 84.2544 17.743C84.0625 18.3619 83.6776 18.9031 83.1559 19.2874C82.6342 19.6716 82.0032 19.8788 81.3552 19.8784V22.9504C82.8504 22.9504 83.9208 23.0026 85.5498 22.039C87.4098 20.9398 88.4555 18.9298 88.4555 16.8425C88.4555 14.6909 87.2862 12.5339 85.305 11.4953C83.8686 10.7417 82.7748 10.7363 81.3552 10.7363V13.8065C82.1605 13.8065 82.9327 14.1263 83.5022 14.6957C84.0716 15.265 84.3916 16.0372 84.3918 16.8425L84.3912 16.8815Z" fill="#EE1D52"></path><path d="M34.3369 7.95044H45.5814L44.5422 11.0446H41.6022V22.8849H37.9801V11.0446H34.3369V7.95044ZM64.1385 7.95044V11.0446H67.7817V22.8849H71.4015V11.0446H74.3414L75.383 7.95044H64.1385ZM48.0275 11.4766C48.3739 11.4766 48.7125 11.3739 49.0006 11.1814C49.2886 10.989 49.5131 10.7155 49.6456 10.3954C49.7782 10.0754 49.8128 9.72327 49.7453 9.38354C49.6777 9.04381 49.5109 8.73174 49.266 8.48681C49.021 8.24187 48.709 8.07507 48.3692 8.00749C48.0295 7.93991 47.6773 7.9746 47.3573 8.10716C47.0373 8.23971 46.7638 8.46419 46.5713 8.7522C46.3789 9.04022 46.2762 9.37883 46.2762 9.72522C46.2762 10.1897 46.4607 10.6352 46.7891 10.9636C47.1176 11.2921 47.5631 11.4766 48.0275 11.4766ZM46.2732 22.8849H49.8233V12.7144H46.2732V22.8849ZM62.593 11.389H58.4422L54.8645 14.9704V7.96184H51.3383L51.3263 22.8849H54.8879V18.9963L55.9972 17.9925L59.4532 22.8849H63.2602L58.2538 15.7299L62.593 11.389ZM96.6449 15.7299L100.986 11.389H96.8351L93.2574 14.9704V7.96184H89.7306L89.7192 22.8849H93.2808V18.9963L94.3926 17.9925L97.8491 22.8849H101.652L96.6449 15.7299ZM87.5191 16.8423C87.5191 20.2149 84.7483 22.9491 81.3301 22.9491C77.912 22.9491 75.1418 20.2149 75.1418 16.8423C75.1418 13.4698 77.9126 10.7356 81.3301 10.7356C84.7477 10.7356 87.5203 13.4704 87.5203 16.8423H87.5191ZM84.3661 16.8423C84.3661 16.2419 84.188 15.6549 83.8544 15.1556C83.5208 14.6564 83.0467 14.2673 82.492 14.0375C81.9372 13.8077 81.3268 13.7476 80.7379 13.8647C80.1489 13.9818 79.608 14.271 79.1834 14.6956C78.7588 15.1202 78.4697 15.6611 78.3525 16.25C78.2354 16.839 78.2955 17.4494 78.5253 18.0041C78.7551 18.5589 79.1442 19.033 79.6434 19.3666C80.1427 19.7002 80.7297 19.8783 81.3301 19.8783C81.729 19.8785 82.1239 19.8002 82.4924 19.6477C82.8609 19.4952 83.1958 19.2716 83.4778 18.9897C83.7599 18.7077 83.9836 18.373 84.1362 18.0045C84.2889 17.6361 84.3674 17.2411 84.3673 16.8423H84.3661Z" fill="black"></path></svg>