<svg xmlns="http://www.w3.org/2000/svg" width="765" height="212" viewBox="0 0 765 212" fill="none"><rect width="765" height="212" rx="12" fill="white"></rect><rect x="580" y="76" width="145" height="60" rx="12" fill="#FE2C55"></rect><rect x="203" y="61" width="304" height="36" rx="8" fill="#F1F1F2"></rect><rect x="203" y="115" width="207" height="36" rx="8" fill="#F1F1F2"></rect><circle cx="57.5" cy="105.5" r="17.5" fill="#FFE45D"></circle><circle cx="57.5" cy="105.5" r="13.65" fill="#FDA125" stroke="#F6961C" stroke-width="0.699989"></circle><path d="M51.3501 114.05V97.7596H58.3818C59.5909 97.7596 60.6488 97.9983 61.5556 98.4755C62.4624 98.9528 63.1677 99.6236 63.6715 100.488C64.1753 101.352 64.4272 102.363 64.4272 103.519C64.4272 104.685 64.1673 105.696 63.6477 106.549C63.1333 107.403 62.4094 108.061 61.4761 108.522C60.5481 108.983 59.4636 109.214 58.2227 109.214H54.0228V105.778H57.3318C57.8515 105.778 58.2943 105.688 58.6602 105.507C59.0314 105.322 59.3151 105.059 59.5114 104.72C59.7129 104.38 59.8136 103.98 59.8136 103.519C59.8136 103.052 59.7129 102.654 59.5114 102.325C59.3151 101.991 59.0314 101.737 58.6602 101.562C58.2943 101.382 57.8515 101.291 57.3318 101.291H55.7728V114.05H51.3501Z" fill="#FFE45D"></path><path d="M98.0142 91.4091V120.5H91.8636V97.2472H91.6932L85.0312 101.423V95.9688L92.233 91.4091H98.0142ZM116.335 121.139C113.891 121.13 111.789 120.528 110.028 119.335C108.276 118.142 106.926 116.414 105.979 114.151C105.042 111.887 104.578 109.165 104.587 105.983C104.587 102.811 105.056 100.107 105.994 97.8722C106.941 95.6373 108.29 93.9375 110.042 92.7727C111.803 91.5985 113.901 91.0114 116.335 91.0114C118.768 91.0114 120.861 91.5985 122.613 92.7727C124.374 93.947 125.728 95.6515 126.675 97.8864C127.622 100.112 128.091 102.811 128.082 105.983C128.082 109.174 127.608 111.902 126.661 114.165C125.724 116.428 124.379 118.156 122.627 119.349C120.875 120.543 118.778 121.139 116.335 121.139ZM116.335 116.04C118.001 116.04 119.332 115.202 120.326 113.526C121.32 111.849 121.813 109.335 121.803 105.983C121.803 103.777 121.576 101.939 121.121 100.472C120.676 99.0038 120.042 97.9006 119.218 97.1619C118.404 96.4233 117.442 96.054 116.335 96.054C114.677 96.054 113.352 96.8826 112.357 98.5398C111.363 100.197 110.861 102.678 110.852 105.983C110.852 108.218 111.074 110.083 111.519 111.58C111.974 113.066 112.613 114.184 113.437 114.932C114.261 115.67 115.227 116.04 116.335 116.04ZM143.874 121.139C141.43 121.13 139.328 120.528 137.567 119.335C135.815 118.142 134.465 116.414 133.518 114.151C132.581 111.887 132.117 109.165 132.126 105.983C132.126 102.811 132.595 100.107 133.533 97.8722C134.48 95.6373 135.829 93.9375 137.581 92.7727C139.342 91.5985 141.44 91.0114 143.874 91.0114C146.307 91.0114 148.4 91.5985 150.152 92.7727C151.913 93.947 153.268 95.6515 154.214 97.8864C155.161 100.112 155.63 102.811 155.621 105.983C155.621 109.174 155.147 111.902 154.2 114.165C153.263 116.428 151.918 118.156 150.166 119.349C148.414 120.543 146.317 121.139 143.874 121.139ZM143.874 116.04C145.54 116.04 146.871 115.202 147.865 113.526C148.859 111.849 149.352 109.335 149.342 105.983C149.342 103.777 149.115 101.939 148.661 100.472C148.215 99.0038 147.581 97.9006 146.757 97.1619C145.943 96.4233 144.982 96.054 143.874 96.054C142.216 96.054 140.891 96.8826 139.896 98.5398C138.902 100.197 138.4 102.678 138.391 105.983C138.391 108.218 138.613 110.083 139.058 111.58C139.513 113.066 140.152 114.184 140.976 114.932C141.8 115.67 142.766 116.04 143.874 116.04Z" fill="#474747"></path></svg>