<svg xmlns:xlink="http://www.w3.org/1999/xlink" xmlns="http://www.w3.org/2000/svg" width="928" height="479" viewBox="0 0 928 479" fill="none"><rect width="928" height="479" rx="12" fill="white"/><rect x="188" y="246" width="551" height="69" rx="8" fill="#F1F1F1"/><rect x="268" y="341" width="392" height="69" rx="8" fill="#F1F1F1"/><g clip-path="url(#clip0_637_79)"><path d="M418.443 90.4003L463.999 70.876L509.556 90.4003C512.176 91.523 513.874 94.099 513.874 96.9492V145.817C513.874 161.158 505.654 175.323 492.334 182.935L463.999 199.126L435.664 182.935C422.344 175.323 414.124 161.158 414.124 145.817V96.9492C414.124 94.099 415.823 91.523 418.443 90.4003Z" stroke="#00850D" stroke-width="14.25" stroke-linejoin="round"/><path d="M485.374 120.751L456.874 149.251L442.624 135.001" stroke="#00850D" stroke-width="14.25" stroke-linecap="round" stroke-linejoin="round"/></g><defs><clipPath id="clip0_637_79"><rect width="171" height="171" fill="white" transform="translate(378 49)"/></clipPath></defs></svg>